<?xml version="1.0" encoding="UTF-8"?><svg xmlns="http://www.w3.org/2000/svg" xmlns:xlink="http://www.w3.org/1999/xlink" contentScriptType="text/ecmascript" width="375" zoomAndPan="magnify" contentStyleType="text/css" viewBox="0 0 375 374.999991" height="374.999991" preserveAspectRatio="xMidYMid meet" version="1.0"><path fill="rgb(29.40979%, 76.078796%, 83.529663%)" d="M 187.5 375 C 210.742188 375 232.984375 370.761719 253.523438 363.027344 C 252.820312 362.332031 252.121094 361.636719 251.441406 360.945312 C 250.726562 360.238281 250.023438 359.535156 249.328125 358.832031 C 248.613281 358.128906 247.90625 357.421875 247.210938 356.71875 C 246.496094 356.007812 245.792969 355.304688 245.097656 354.601562 C 244.382812 353.898438 243.679688 353.191406 242.984375 352.492188 C 242.265625 351.78125 241.5625 351.074219 240.863281 350.371094 C 240.152344 349.664062 239.449219 348.960938 238.753906 348.261719 C 238.039062 347.550781 237.332031 346.847656 236.640625 346.140625 C 235.921875 345.4375 235.21875 344.730469 234.523438 344.03125 C 233.808594 343.324219 233.105469 342.617188 232.410156 341.917969 C 231.695312 341.207031 230.988281 340.5 230.289062 339.796875 C 229.574219 339.089844 228.871094 338.386719 228.179688 337.6875 C 227.464844 336.976562 226.761719 336.273438 226.0625 335.570312 C 225.347656 334.863281 224.644531 334.15625 223.949219 333.453125 C 223.234375 332.746094 222.53125 332.042969 221.835938 331.339844 C 221.121094 330.632812 220.414062 329.929688 219.71875 329.226562 C 219.003906 328.515625 218.300781 327.8125 217.605469 327.109375 C 216.890625 326.40625 216.183594 325.699219 215.488281 324.996094 C 214.773438 324.285156 214.070312 323.582031 213.375 322.878906 C 212.660156 322.171875 211.957031 321.46875 211.261719 320.769531 C 210.546875 320.058594 209.839844 319.351562 209.148438 318.648438 C 208.429688 317.945312 207.726562 317.242188 207.03125 316.539062 C 206.316406 315.828125 205.609375 315.125 204.917969 314.421875 C 204.203125 313.714844 203.492188 313.007812 202.796875 312.304688 C 202.085938 311.597656 201.378906 310.894531 200.6875 310.195312 C 199.972656 309.484375 199.269531 308.78125 198.570312 308.078125 C 197.855469 307.371094 197.152344 306.664062 196.457031 305.964844 C 195.742188 305.253906 195.039062 304.550781 194.339844 303.847656 C 193.625 303.140625 192.917969 302.433594 192.226562 301.730469 C 191.511719 301.023438 190.808594 300.320312 190.113281 299.617188 C 189.398438 298.914062 188.691406 298.207031 187.996094 297.503906 C 187.28125 296.796875 186.578125 296.089844 185.886719 295.390625 C 185.167969 294.683594 184.460938 293.976562 183.765625 293.273438 C 183.050781 292.566406 182.347656 291.859375 181.652344 291.15625 C 180.9375 290.453125 180.234375 289.746094 179.539062 289.046875 C 178.824219 288.335938 178.117188 287.632812 177.425781 286.929688 C 176.710938 286.222656 176.003906 285.519531 175.308594 284.816406 C 174.59375 284.109375 173.886719 283.402344 173.195312 282.699219 C 172.480469 281.992188 171.773438 281.289062 171.078125 280.582031 C 170.363281 279.878906 169.660156 279.171875 168.964844 278.472656 C 168.25 277.761719 167.546875 277.058594 166.851562 276.355469 C 166.136719 275.648438 165.429688 274.945312 164.734375 274.242188 C 164.019531 273.535156 163.316406 272.828125 162.621094 272.125 C 161.902344 271.417969 161.199219 270.710938 160.503906 270.007812 C 159.789062 269.300781 159.085938 268.597656 158.394531 267.898438 C 157.675781 267.191406 156.972656 266.484375 156.273438 265.78125 C 155.558594 265.074219 154.855469 264.367188 154.164062 263.667969 C 153.449219 262.960938 152.742188 262.253906 152.046875 261.550781 C 151.328125 260.84375 150.625 260.136719 149.929688 259.433594 C 149.214844 258.730469 148.511719 258.027344 147.820312 257.324219 C 147.101562 256.617188 146.394531 255.910156 145.703125 255.207031 C 144.988281 254.5 144.285156 253.796875 143.589844 253.09375 C 142.871094 252.386719 142.167969 251.679688 141.472656 250.976562 C 140.757812 250.269531 140.050781 249.566406 139.355469 248.863281 C 138.640625 248.15625 137.9375 247.449219 137.242188 246.75 C 136.527344 246.039062 135.824219 245.335938 135.128906 244.632812 C 113.195312 222.941406 101.074219 203.59375 95.570312 186.257812 L 101.835938 186.257812 C 101.824219 186.191406 101.804688 186.121094 101.792969 186.050781 L 100.125 186.050781 C 99.960938 185.34375 99.820312 184.640625 99.679688 183.9375 L 98.007812 183.9375 C 97.847656 183.226562 97.703125 182.523438 97.5625 181.820312 L 95.894531 181.820312 C 95.734375 181.113281 95.589844 180.410156 95.449219 179.707031 L 93.777344 179.707031 C 92.914062 175.941406 92.359375 172.273438 92.078125 168.703125 L 92.078125 157.789062 C 94.710938 124.988281 116.328125 107.871094 135.019531 106.039062 C 138.089844 105.742188 140.960938 105.59375 143.660156 105.59375 C 161.195312 105.59375 171.320312 111.746094 180.855469 121.617188 C 181.566406 122.300781 182.269531 123.003906 182.96875 123.730469 C 183.679688 124.414062 184.382812 125.121094 185.082031 125.84375 C 185.792969 126.53125 186.5 127.234375 187.199219 127.960938 C 187.421875 128.175781 187.644531 128.398438 187.867188 128.617188 C 199.585938 114.738281 209.953125 105.59375 231.320312 105.59375 C 234.015625 105.59375 236.886719 105.742188 239.96875 106.039062 C 249.320312 106.957031 259.410156 111.703125 267.484375 120.328125 C 268.203125 121.007812 268.914062 121.707031 269.601562 122.441406 C 270.320312 123.121094 271.027344 123.824219 271.714844 124.558594 C 272.433594 125.238281 273.144531 125.933594 273.832031 126.671875 C 274.550781 127.351562 275.257812 128.050781 275.945312 128.789062 C 276.664062 129.46875 277.371094 130.164062 278.058594 130.902344 C 278.777344 131.582031 279.484375 132.28125 280.175781 133.015625 C 280.890625 133.695312 281.601562 134.394531 282.289062 135.132812 C 283.007812 135.8125 283.714844 136.511719 284.40625 137.246094 C 285.121094 137.925781 285.832031 138.625 286.519531 139.363281 C 287.238281 140.042969 287.945312 140.738281 288.636719 141.476562 C 289.351562 142.15625 290.058594 142.855469 290.75 143.589844 C 291.464844 144.273438 292.175781 144.96875 292.863281 145.703125 C 293.582031 146.386719 294.289062 147.085938 294.976562 147.820312 C 295.695312 148.5 296.40625 149.199219 297.09375 149.933594 C 297.8125 150.613281 298.519531 151.316406 299.207031 152.050781 C 299.925781 152.730469 300.636719 153.425781 301.324219 154.164062 C 302.042969 154.84375 302.746094 155.542969 303.4375 156.28125 C 304.152344 156.960938 304.863281 157.65625 305.554688 158.394531 C 306.269531 159.074219 306.976562 159.773438 307.667969 160.507812 C 308.382812 161.191406 309.09375 161.886719 309.78125 162.625 C 310.5 163.304688 311.207031 164.003906 311.898438 164.738281 C 312.613281 165.417969 313.324219 166.117188 314.011719 166.855469 C 314.730469 167.535156 315.4375 168.230469 316.128906 168.96875 C 316.84375 169.648438 317.550781 170.347656 318.242188 171.085938 C 318.957031 171.765625 319.667969 172.460938 320.359375 173.199219 C 321.074219 173.878906 321.78125 174.578125 322.472656 175.3125 C 323.1875 175.992188 323.898438 176.691406 324.585938 177.425781 C 325.304688 178.105469 326.011719 178.808594 326.699219 179.542969 C 327.417969 180.222656 328.128906 180.917969 328.816406 181.65625 C 329.535156 182.335938 330.242188 183.035156 330.929688 183.773438 C 331.648438 184.453125 332.355469 185.148438 333.046875 185.886719 C 333.761719 186.566406 334.46875 187.265625 335.160156 188.003906 C 335.875 188.679688 336.585938 189.378906 337.273438 190.117188 C 337.992188 190.796875 338.699219 191.496094 339.390625 192.230469 C 340.105469 192.910156 340.816406 193.609375 341.503906 194.347656 C 342.222656 195.027344 342.929688 195.726562 343.621094 196.460938 C 344.335938 197.140625 345.042969 197.839844 345.734375 198.578125 C 346.449219 199.257812 347.160156 199.953125 347.851562 200.691406 C 348.566406 201.367188 349.273438 202.070312 349.960938 202.804688 C 350.679688 203.484375 351.390625 204.183594 352.078125 204.917969 C 352.796875 205.597656 353.503906 206.300781 354.191406 207.035156 C 354.910156 207.714844 355.621094 208.414062 356.308594 209.148438 C 357.027344 209.828125 357.734375 210.527344 358.421875 211.265625 C 359.140625 211.945312 359.851562 212.640625 360.539062 213.378906 C 361.257812 214.058594 361.960938 214.757812 362.652344 215.492188 C 363.367188 216.175781 364.078125 216.871094 364.765625 217.609375 C 365.484375 218.289062 366.191406 218.988281 366.882812 219.722656 C 367.597656 220.402344 368.308594 221.101562 368.996094 221.839844 C 369.714844 222.519531 370.421875 223.214844 371.113281 223.953125 C 371.207031 224.042969 371.300781 224.128906 371.394531 224.21875 C 373.753906 212.34375 375 200.066406 375 187.5 C 375 83.945312 291.050781 0 187.5 0 C 83.945312 0 0 83.945312 0 187.5 C 0 291.050781 83.945312 375 187.5 375 " fill-opacity="1" fill-rule="nonzero"/><path fill="rgb(100%, 100%, 100%)" d="M 98.949219 179.707031 L 157.023438 179.707031 C 157.09375 179.59375 157.171875 179.402344 157.207031 179.125 L 157.550781 176.484375 L 158.25 171.089844 L 158.875 166.277344 L 159.445312 161.875 L 159.976562 157.796875 L 160.414062 154.398438 C 160.433594 154.269531 160.457031 154.152344 160.480469 154.023438 C 160.796875 152.160156 161.671875 150.601562 162.898438 149.554688 C 163.914062 148.691406 165.167969 148.175781 166.550781 148.121094 C 166.621094 148.117188 166.691406 148.113281 166.761719 148.113281 C 166.765625 148.113281 166.773438 148.113281 166.777344 148.113281 C 168.273438 148.113281 169.628906 148.660156 170.710938 149.605469 C 171.390625 150.203125 171.964844 150.953125 172.390625 151.835938 C 172.753906 152.589844 173.007812 153.4375 173.136719 154.351562 L 173.136719 154.386719 L 173.511719 157.128906 L 173.894531 159.953125 L 174.285156 162.859375 L 174.695312 165.847656 L 175.109375 168.929688 L 175.539062 172.101562 L 175.984375 175.367188 L 176.4375 178.734375 L 176.910156 182.207031 L 177.394531 185.789062 L 177.894531 189.496094 L 178.417969 193.332031 L 178.957031 197.316406 L 179.519531 201.460938 L 180.105469 205.789062 L 180.722656 210.355469 L 181.375 215.164062 L 182.066406 220.269531 L 182.8125 225.769531 L 183.625 231.785156 L 184.328125 236.953125 L 186.875 223.226562 L 188.535156 214.300781 L 189.777344 207.589844 L 190.828125 201.9375 L 191.746094 196.976562 L 192.578125 192.519531 L 193.332031 188.453125 L 194.023438 184.726562 L 194.667969 181.257812 L 195.261719 178.050781 L 195.820312 175.054688 L 196.335938 172.277344 L 196.816406 169.683594 L 197.207031 167.570312 C 197.226562 167.476562 197.25 167.382812 197.269531 167.289062 C 197.460938 166.433594 197.765625 165.648438 198.167969 164.953125 C 198.710938 164.019531 199.425781 163.25 200.273438 162.703125 C 201.1875 162.109375 202.246094 161.765625 203.386719 161.746094 C 204.777344 161.722656 206.066406 162.179688 207.121094 162.996094 C 207.828125 163.539062 208.429688 164.242188 208.894531 165.074219 C 209.234375 165.683594 209.5 166.355469 209.679688 167.089844 C 209.695312 167.140625 209.710938 167.191406 209.722656 167.242188 L 210.613281 171.171875 L 211.09375 173.273438 L 211.578125 175.410156 L 212.070312 177.582031 L 212.570312 179.78125 L 213.074219 182.007812 L 213.589844 184.257812 L 214.109375 186.554688 L 214.648438 188.921875 L 215.199219 191.347656 L 215.765625 193.839844 L 216.34375 196.390625 L 216.769531 198.261719 L 217.199219 196.140625 L 217.761719 193.363281 L 218.277344 190.796875 L 218.761719 188.40625 L 219.226562 186.109375 L 219.675781 183.878906 L 220.109375 181.730469 L 220.523438 179.675781 L 220.921875 177.707031 L 221.089844 176.886719 C 221.160156 176.527344 221.253906 176.183594 221.367188 175.855469 C 221.570312 175.25 221.828125 174.6875 222.144531 174.183594 C 222.476562 173.652344 222.871094 173.1875 223.3125 172.785156 C 223.765625 172.371094 224.265625 172.023438 224.816406 171.765625 C 225.371094 171.5 225.976562 171.324219 226.605469 171.242188 C 226.710938 171.226562 226.816406 171.214844 226.921875 171.203125 C 227.476562 171.160156 228.019531 171.199219 228.542969 171.308594 C 230.058594 171.617188 231.402344 172.539062 232.355469 173.902344 C 232.574219 174.21875 232.773438 174.554688 232.949219 174.917969 C 233.066406 175.160156 233.179688 175.410156 233.277344 175.667969 L 233.363281 175.910156 L 233.761719 176.992188 L 234.207031 178.203125 L 234.695312 179.535156 L 234.867188 180 C 234.898438 180.082031 234.929688 180.144531 234.957031 180.195312 L 236.058594 180.191406 L 237.667969 180.183594 L 238.613281 180.179688 L 239.429688 180.179688 L 241.855469 180.171875 L 245.828125 180.15625 L 249.875 180.144531 L 254.027344 180.132812 L 258.328125 180.117188 L 262.832031 180.101562 L 267.613281 180.085938 L 272.851562 180.070312 L 278.789062 180.050781 L 281.136719 180.039062 C 281.230469 179.652344 281.300781 179.265625 281.386719 178.878906 C 281.617188 177.828125 281.824219 176.785156 282.003906 175.75 C 282.175781 174.785156 282.324219 173.824219 282.457031 172.871094 C 282.578125 171.96875 282.683594 171.074219 282.773438 170.1875 C 282.824219 169.691406 282.882812 169.195312 282.917969 168.703125 L 282.917969 157.789062 C 282.882812 157.304688 282.824219 156.835938 282.777344 156.359375 C 282.707031 155.664062 282.636719 154.964844 282.550781 154.285156 C 282.460938 153.597656 282.367188 152.917969 282.265625 152.246094 C 282.160156 151.570312 282.042969 150.90625 281.921875 150.242188 C 281.800781 149.582031 281.675781 148.921875 281.535156 148.273438 C 281.398438 147.625 281.261719 146.972656 281.105469 146.335938 C 280.953125 145.703125 280.785156 145.082031 280.613281 144.460938 C 280.445312 143.851562 280.273438 143.253906 280.09375 142.65625 C 279.914062 142.070312 279.738281 141.484375 279.546875 140.910156 C 279.355469 140.335938 279.144531 139.773438 278.941406 139.210938 C 278.738281 138.660156 278.527344 138.113281 278.3125 137.574219 C 278.101562 137.046875 277.890625 136.515625 277.667969 136 C 277.441406 135.476562 277.199219 134.96875 276.964844 134.460938 C 276.726562 133.953125 276.484375 133.457031 276.234375 132.964844 C 275.992188 132.476562 275.746094 131.988281 275.488281 131.511719 C 275.230469 131.03125 274.960938 130.566406 274.691406 130.101562 C 274.425781 129.640625 274.152344 129.1875 273.878906 128.738281 C 273.605469 128.296875 273.335938 127.851562 273.054688 127.421875 C 272.757812 126.972656 272.453125 126.539062 272.148438 126.101562 C 271.855469 125.679688 271.554688 125.265625 271.253906 124.859375 C 270.957031 124.460938 270.664062 124.0625 270.363281 123.679688 C 270.035156 123.261719 269.695312 122.859375 269.359375 122.453125 C 269.023438 122.054688 268.6875 121.667969 268.347656 121.285156 C 268.058594 120.964844 267.777344 120.636719 267.484375 120.328125 C 259.410156 111.703125 249.320312 106.957031 239.96875 106.039062 C 236.886719 105.742188 234.015625 105.59375 231.320312 105.59375 C 209.953125 105.59375 199.585938 114.738281 187.867188 128.617188 C 187.851562 128.636719 187.832031 128.65625 187.820312 128.675781 C 187.773438 128.730469 187.726562 128.785156 187.679688 128.839844 C 187.617188 128.914062 187.550781 128.992188 187.488281 129.066406 C 187.152344 128.667969 186.824219 128.277344 186.492188 127.886719 C 186.101562 127.429688 185.714844 126.976562 185.328125 126.53125 C 184.949219 126.089844 184.566406 125.652344 184.1875 125.226562 C 183.808594 124.800781 183.433594 124.382812 183.058594 123.96875 C 182.6875 123.566406 182.320312 123.164062 181.949219 122.765625 C 181.585938 122.378906 181.222656 121.996094 180.855469 121.617188 C 171.320312 111.746094 161.195312 105.59375 143.660156 105.59375 C 140.960938 105.59375 138.089844 105.742188 135.019531 106.039062 C 116.328125 107.871094 94.710938 124.988281 92.078125 157.789062 L 92.078125 168.703125 C 92.359375 172.273438 92.914062 175.941406 93.777344 179.707031 L 98.949219 179.707031 " fill-opacity="1" fill-rule="nonzero"/><path fill="rgb(100%, 100%, 100%)" d="M 137.289062 246.753906 C 137.660156 247.109375 138.035156 247.46875 138.40625 247.824219 C 138.777344 248.179688 139.152344 248.535156 139.527344 248.894531 C 139.902344 249.246094 140.273438 249.597656 140.648438 249.949219 C 141.027344 250.304688 141.414062 250.664062 141.800781 251.019531 C 142.1875 251.382812 142.574219 251.738281 142.960938 252.097656 C 143.347656 252.449219 143.734375 252.800781 144.121094 253.152344 C 144.519531 253.515625 144.914062 253.875 145.316406 254.234375 C 145.714844 254.59375 146.113281 254.957031 146.519531 255.316406 C 146.914062 255.667969 147.316406 256.023438 147.714844 256.375 C 148.125 256.738281 148.535156 257.097656 148.949219 257.460938 C 149.359375 257.820312 149.769531 258.179688 150.1875 258.539062 C 150.597656 258.894531 151.011719 259.253906 151.429688 259.609375 C 151.851562 259.972656 152.277344 260.335938 152.703125 260.699219 C 153.125 261.058594 153.550781 261.417969 153.976562 261.777344 C 154.402344 262.136719 154.832031 262.496094 155.265625 262.855469 C 155.699219 263.222656 156.136719 263.585938 156.578125 263.957031 C 157.011719 264.3125 157.449219 264.671875 157.890625 265.035156 C 158.328125 265.394531 158.769531 265.757812 159.214844 266.121094 C 159.664062 266.484375 160.117188 266.851562 160.570312 267.214844 C 161.015625 267.578125 161.46875 267.941406 161.921875 268.300781 C 162.378906 268.667969 162.832031 269.03125 163.292969 269.394531 C 163.75 269.757812 164.214844 270.125 164.679688 270.492188 C 165.140625 270.855469 165.605469 271.222656 166.074219 271.585938 C 166.542969 271.949219 167.007812 272.316406 167.484375 272.683594 C 167.957031 273.050781 168.433594 273.414062 168.910156 273.78125 C 169.386719 274.148438 169.867188 274.515625 170.347656 274.882812 C 170.828125 275.25 171.308594 275.617188 171.792969 275.980469 C 172.28125 276.351562 172.769531 276.71875 173.261719 277.085938 C 173.753906 277.457031 174.242188 277.824219 174.742188 278.195312 C 175.234375 278.5625 175.730469 278.929688 176.226562 279.296875 C 176.726562 279.664062 177.226562 280.035156 177.730469 280.40625 C 178.234375 280.773438 178.742188 281.148438 179.253906 281.515625 C 179.757812 281.886719 180.269531 282.253906 180.777344 282.625 C 181.292969 282.996094 181.804688 283.367188 182.324219 283.738281 C 182.839844 284.109375 183.359375 284.480469 183.882812 284.851562 C 184.398438 285.222656 184.925781 285.59375 185.453125 285.964844 C 185.976562 286.339844 186.5 286.710938 187.03125 287.082031 C 187.183594 287.191406 187.335938 287.296875 187.488281 287.40625 C 187.671875 287.277344 187.851562 287.148438 188.03125 287.019531 C 188.304688 286.832031 188.578125 286.636719 188.851562 286.445312 C 189.144531 286.234375 189.445312 286.027344 189.738281 285.820312 C 190.058594 285.589844 190.378906 285.363281 190.699219 285.136719 C 191.046875 284.886719 191.394531 284.640625 191.742188 284.394531 C 192.117188 284.125 192.496094 283.855469 192.871094 283.585938 C 192.894531 283.570312 192.914062 283.550781 192.9375 283.539062 C 193.921875 282.828125 194.894531 282.125 195.859375 281.421875 C 195.953125 281.355469 196.042969 281.289062 196.136719 281.21875 C 196.375 281.042969 196.609375 280.867188 196.851562 280.695312 C 197.371094 280.316406 197.890625 279.933594 198.40625 279.554688 C 198.976562 279.132812 199.542969 278.710938 200.101562 278.296875 C 200.757812 277.808594 201.402344 277.324219 202.050781 276.835938 C 202.761719 276.304688 203.464844 275.769531 204.164062 275.238281 C 204.875 274.699219 205.582031 274.160156 206.277344 273.621094 C 207.066406 273.015625 207.847656 272.410156 208.621094 271.808594 C 209.53125 271.097656 210.429688 270.390625 211.320312 269.6875 C 212.339844 268.878906 213.351562 268.070312 214.347656 267.269531 C 215.527344 266.316406 216.691406 265.367188 217.835938 264.421875 C 219.265625 263.242188 220.667969 262.070312 222.039062 260.898438 C 224.039062 259.203125 225.976562 257.523438 227.859375 255.851562 C 234.847656 249.648438 241.046875 243.632812 246.53125 237.789062 C 248.132812 236.078125 249.671875 234.386719 251.152344 232.710938 C 252.191406 231.539062 253.191406 230.371094 254.171875 229.214844 C 254.933594 228.308594 255.679688 227.40625 256.410156 226.511719 C 257.0625 225.707031 257.695312 224.910156 258.320312 224.117188 C 258.898438 223.378906 259.472656 222.644531 260.03125 221.910156 C 260.542969 221.234375 261.042969 220.5625 261.539062 219.894531 C 261.988281 219.277344 262.433594 218.667969 262.867188 218.058594 C 263.261719 217.507812 263.652344 216.957031 264.03125 216.410156 C 264.371094 215.921875 264.707031 215.429688 265.039062 214.941406 C 265.328125 214.515625 265.617188 214.085938 265.902344 213.660156 C 266.144531 213.292969 266.386719 212.921875 266.625 212.558594 C 266.824219 212.25 267.023438 211.941406 267.21875 211.636719 C 267.378906 211.386719 267.535156 211.136719 267.695312 210.882812 C 267.816406 210.691406 267.941406 210.496094 268.058594 210.300781 C 268.152344 210.15625 268.238281 210.015625 268.328125 209.871094 C 268.386719 209.773438 268.445312 209.679688 268.503906 209.582031 C 268.539062 209.53125 268.570312 209.476562 268.601562 209.421875 C 268.609375 209.40625 268.621094 209.390625 268.632812 209.371094 C 269.207031 208.429688 269.765625 207.492188 270.304688 206.558594 C 272.167969 203.328125 273.804688 200.160156 275.230469 197.050781 C 276.167969 195 277.011719 192.976562 277.773438 190.980469 C 278.332031 189.503906 278.847656 188.042969 279.3125 186.59375 L 278.902344 186.597656 L 273.71875 186.613281 L 268.960938 186.628906 L 264.476562 186.644531 L 260.195312 186.660156 L 256.050781 186.671875 L 252.007812 186.683594 L 248.042969 186.699219 L 245.953125 186.707031 L 245.195312 186.707031 L 244.300781 186.710938 L 242.773438 186.71875 L 240.050781 186.726562 L 234.664062 186.742188 C 234.65625 186.742188 234.648438 186.742188 234.644531 186.742188 C 232.785156 186.742188 231.078125 185.832031 229.882812 184.324219 C 229.425781 183.742188 229.039062 183.085938 228.757812 182.339844 C 228.746094 182.3125 228.730469 182.289062 228.722656 182.257812 L 228.058594 180.453125 L 227.40625 178.679688 L 227.078125 180.289062 L 226.714844 182.089844 L 226.335938 183.988281 L 225.929688 185.984375 L 225.507812 188.078125 L 225.066406 190.257812 L 224.613281 192.511719 L 224.144531 194.835938 L 223.648438 197.289062 L 223.117188 199.925781 L 223.046875 200.273438 C 222.84375 201.273438 222.476562 202.179688 221.988281 202.960938 C 220.832031 204.804688 218.976562 205.945312 216.847656 205.972656 C 216.324219 205.976562 215.816406 205.910156 215.332031 205.785156 C 214.230469 205.507812 213.242188 204.921875 212.441406 204.085938 C 211.804688 203.417969 211.28125 202.597656 210.917969 201.65625 C 210.773438 201.277344 210.648438 200.886719 210.554688 200.472656 L 210.183594 198.835938 L 209.546875 196.027344 L 208.925781 193.28125 L 208.316406 190.605469 L 207.71875 187.984375 L 207.136719 185.425781 L 206.570312 182.925781 L 206.019531 180.492188 L 205.480469 178.117188 L 204.953125 175.816406 L 204.441406 173.5625 L 203.933594 171.332031 L 203.511719 169.480469 L 203.160156 171.382812 L 202.726562 173.710938 L 202.269531 176.179688 L 201.777344 178.820312 L 201.25 181.679688 L 200.679688 184.738281 L 200.066406 188.042969 L 199.410156 191.582031 L 198.695312 195.433594 L 197.917969 199.621094 L 197.0625 204.226562 L 196.105469 209.394531 L 194.992188 215.367188 L 193.648438 222.625 L 191.703125 233.097656 L 190.597656 239.058594 C 190.316406 240.582031 189.65625 241.890625 188.746094 242.886719 C 187.957031 243.75 186.972656 244.367188 185.878906 244.671875 C 185.378906 244.8125 184.855469 244.890625 184.316406 244.890625 C 184.265625 244.890625 184.21875 244.890625 184.167969 244.886719 C 183.921875 244.878906 183.679688 244.855469 183.441406 244.820312 C 182.617188 244.699219 181.855469 244.40625 181.164062 243.972656 C 180.324219 243.445312 179.605469 242.707031 179.054688 241.808594 C 178.496094 240.902344 178.109375 239.832031 177.949219 238.648438 L 177.53125 235.578125 L 176.53125 228.175781 L 175.65625 221.746094 L 174.875 215.957031 L 174.148438 210.617188 L 173.472656 205.613281 L 172.835938 200.925781 L 172.234375 196.46875 L 171.65625 192.207031 L 171.101562 188.121094 L 170.570312 184.191406 L 170.054688 180.402344 L 169.5625 176.746094 L 169.082031 173.207031 L 168.613281 169.773438 L 168.167969 166.449219 L 167.726562 163.222656 L 167.300781 160.085938 L 166.890625 157.039062 L 166.78125 156.230469 L 166.660156 157.164062 L 166.195312 160.738281 L 165.695312 164.585938 L 165.160156 168.710938 L 164.578125 173.222656 L 163.933594 178.171875 L 163.703125 179.96875 C 163.257812 183.367188 160.902344 185.898438 157.972656 186.21875 C 157.765625 186.242188 157.550781 186.257812 157.339844 186.257812 L 95.570312 186.257812 C 101.074219 203.59375 113.195312 222.941406 135.128906 244.632812 C 135.488281 244.988281 135.851562 245.347656 136.21875 245.707031 C 136.574219 246.054688 136.929688 246.402344 137.289062 246.753906 " fill-opacity="1" fill-rule="nonzero"/><path fill="rgb(18.818665%, 52.159119%, 56.469727%)" d="M 183.058594 123.96875 C 183.433594 124.382812 183.808594 124.800781 184.1875 125.226562 C 184.566406 125.652344 184.949219 126.089844 185.328125 126.53125 C 185.714844 126.976562 186.101562 127.429688 186.492188 127.886719 C 186.824219 128.277344 187.152344 128.667969 187.488281 129.066406 C 187.550781 128.992188 187.617188 128.914062 187.679688 128.839844 C 187.726562 128.785156 187.773438 128.730469 187.820312 128.675781 C 187.832031 128.65625 187.851562 128.636719 187.867188 128.617188 C 187.644531 128.398438 187.421875 128.175781 187.199219 127.960938 C 186.5 127.234375 185.792969 126.53125 185.082031 125.84375 C 184.382812 125.121094 183.679688 124.414062 182.96875 123.730469 C 182.269531 123.003906 181.566406 122.300781 180.855469 121.617188 C 181.222656 121.996094 181.585938 122.378906 181.949219 122.765625 C 182.320312 123.164062 182.6875 123.566406 183.058594 123.96875 " fill-opacity="1" fill-rule="nonzero"/><path fill="rgb(18.818665%, 52.159119%, 56.469727%)" d="M 368.996094 221.839844 C 368.308594 221.101562 367.597656 220.402344 366.882812 219.722656 C 366.191406 218.988281 365.484375 218.289062 364.765625 217.609375 C 364.078125 216.871094 363.367188 216.175781 362.652344 215.492188 C 361.960938 214.757812 361.257812 214.058594 360.539062 213.378906 C 359.851562 212.640625 359.140625 211.945312 358.421875 211.265625 C 357.734375 210.527344 357.027344 209.828125 356.308594 209.148438 C 355.621094 208.414062 354.910156 207.714844 354.191406 207.035156 C 353.503906 206.300781 352.796875 205.597656 352.078125 204.917969 C 351.390625 204.183594 350.679688 203.484375 349.960938 202.804688 C 349.273438 202.070312 348.566406 201.367188 347.851562 200.691406 C 347.160156 199.953125 346.449219 199.257812 345.734375 198.578125 C 345.042969 197.839844 344.335938 197.140625 343.621094 196.460938 C 342.929688 195.726562 342.222656 195.027344 341.503906 194.347656 C 340.816406 193.609375 340.105469 192.910156 339.390625 192.230469 C 338.699219 191.496094 337.992188 190.796875 337.273438 190.117188 C 336.585938 189.378906 335.875 188.679688 335.160156 188.003906 C 334.46875 187.265625 333.761719 186.566406 333.046875 185.886719 C 332.355469 185.148438 331.648438 184.453125 330.929688 183.773438 C 330.242188 183.035156 329.535156 182.335938 328.816406 181.65625 C 328.128906 180.917969 327.417969 180.222656 326.699219 179.542969 C 326.011719 178.808594 325.304688 178.105469 324.585938 177.425781 C 323.898438 176.691406 323.1875 175.992188 322.472656 175.3125 C 321.78125 174.578125 321.074219 173.878906 320.359375 173.199219 C 319.667969 172.460938 318.957031 171.765625 318.242188 171.085938 C 317.550781 170.347656 316.84375 169.648438 316.128906 168.96875 C 315.4375 168.230469 314.730469 167.535156 314.011719 166.855469 C 313.324219 166.117188 312.613281 165.417969 311.898438 164.738281 C 311.207031 164.003906 310.5 163.304688 309.78125 162.625 C 309.09375 161.886719 308.382812 161.191406 307.667969 160.507812 C 306.976562 159.773438 306.269531 159.074219 305.554688 158.394531 C 304.863281 157.65625 304.152344 156.960938 303.4375 156.28125 C 302.746094 155.542969 302.042969 154.84375 301.324219 154.164062 C 300.636719 153.425781 299.925781 152.730469 299.207031 152.050781 C 298.519531 151.316406 297.8125 150.613281 297.09375 149.933594 C 296.40625 149.199219 295.695312 148.5 294.976562 147.820312 C 294.289062 147.085938 293.582031 146.386719 292.863281 145.703125 C 292.175781 144.96875 291.464844 144.273438 290.75 143.589844 C 290.058594 142.855469 289.351562 142.15625 288.636719 141.476562 C 287.945312 140.738281 287.238281 140.042969 286.519531 139.363281 C 285.832031 138.625 285.121094 137.925781 284.40625 137.246094 C 283.714844 136.511719 283.007812 135.8125 282.289062 135.132812 C 281.601562 134.394531 280.890625 133.695312 280.175781 133.015625 C 279.484375 132.28125 278.777344 131.582031 278.058594 130.902344 C 277.371094 130.164062 276.664062 129.46875 275.945312 128.789062 C 275.257812 128.050781 274.550781 127.351562 273.832031 126.671875 C 273.144531 125.933594 272.433594 125.238281 271.714844 124.558594 C 271.027344 123.824219 270.320312 123.121094 269.601562 122.441406 C 268.914062 121.707031 268.203125 121.007812 267.484375 120.328125 C 267.777344 120.636719 268.058594 120.964844 268.347656 121.285156 C 268.6875 121.667969 269.023438 122.054688 269.359375 122.453125 C 269.695312 122.859375 270.035156 123.261719 270.363281 123.679688 C 270.664062 124.0625 270.957031 124.460938 271.253906 124.859375 C 271.554688 125.265625 271.855469 125.679688 272.148438 126.101562 C 272.453125 126.539062 272.757812 126.972656 273.054688 127.421875 C 273.335938 127.851562 273.605469 128.296875 273.878906 128.738281 C 274.152344 129.1875 274.425781 129.640625 274.691406 130.101562 C 274.960938 130.566406 275.230469 131.03125 275.488281 131.511719 C 275.746094 131.988281 275.992188 132.476562 276.234375 132.964844 C 276.484375 133.457031 276.726562 133.953125 276.964844 134.460938 C 277.199219 134.96875 277.441406 135.476562 277.667969 136 C 277.890625 136.515625 278.101562 137.046875 278.3125 137.574219 C 278.527344 138.113281 278.738281 138.660156 278.941406 139.210938 C 279.144531 139.773438 279.355469 140.335938 279.546875 140.910156 C 279.738281 141.484375 279.914062 142.070312 280.09375 142.65625 C 280.273438 143.253906 280.445312 143.851562 280.613281 144.460938 C 280.785156 145.082031 280.953125 145.703125 281.105469 146.335938 C 281.261719 146.972656 281.398438 147.625 281.535156 148.273438 C 281.675781 148.921875 281.800781 149.582031 281.921875 150.242188 C 282.042969 150.90625 282.160156 151.570312 282.265625 152.246094 C 282.367188 152.917969 282.460938 153.597656 282.550781 154.285156 C 282.636719 154.964844 282.707031 155.664062 282.777344 156.359375 C 282.824219 156.835938 282.882812 157.304688 282.917969 157.789062 L 282.917969 168.703125 C 282.882812 169.195312 282.824219 169.691406 282.773438 170.1875 C 282.683594 171.074219 282.578125 171.96875 282.457031 172.871094 C 282.324219 173.824219 282.175781 174.785156 282.003906 175.75 C 281.824219 176.785156 281.617188 177.828125 281.386719 178.878906 C 281.300781 179.265625 281.230469 179.652344 281.136719 180.039062 L 278.789062 180.050781 L 272.851562 180.070312 L 267.613281 180.085938 L 262.832031 180.101562 L 258.328125 180.117188 L 254.027344 180.132812 L 249.875 180.144531 L 245.828125 180.15625 L 241.855469 180.171875 L 239.429688 180.179688 L 238.613281 180.179688 L 237.667969 180.183594 L 236.058594 180.191406 L 234.957031 180.195312 C 234.929688 180.144531 234.898438 180.082031 234.867188 180 L 234.695312 179.535156 L 234.207031 178.203125 L 233.761719 176.992188 L 233.363281 175.910156 L 233.277344 175.667969 C 233.179688 175.410156 233.066406 175.160156 232.949219 174.917969 C 232.773438 174.554688 232.574219 174.21875 232.355469 173.902344 C 231.402344 172.539062 230.058594 171.617188 228.542969 171.308594 C 228.019531 171.199219 227.476562 171.160156 226.921875 171.203125 C 226.816406 171.214844 226.710938 171.226562 226.605469 171.242188 C 225.976562 171.324219 225.371094 171.5 224.816406 171.765625 C 224.265625 172.023438 223.765625 172.371094 223.3125 172.785156 C 222.871094 173.1875 222.476562 173.652344 222.144531 174.183594 C 221.828125 174.6875 221.570312 175.25 221.367188 175.855469 C 221.253906 176.183594 221.160156 176.527344 221.089844 176.886719 L 220.921875 177.707031 L 220.523438 179.675781 L 220.109375 181.730469 L 219.675781 183.878906 L 219.226562 186.109375 L 218.761719 188.40625 L 218.277344 190.796875 L 217.761719 193.363281 L 217.199219 196.140625 L 216.769531 198.261719 L 216.34375 196.390625 L 215.765625 193.839844 L 215.199219 191.347656 L 214.648438 188.921875 L 214.109375 186.554688 L 213.589844 184.257812 L 213.074219 182.007812 L 212.570312 179.78125 L 212.070312 177.582031 L 211.578125 175.410156 L 211.09375 173.273438 L 210.613281 171.171875 L 209.722656 167.242188 C 209.710938 167.191406 209.695312 167.140625 209.679688 167.089844 C 209.5 166.355469 209.234375 165.683594 208.894531 165.074219 C 208.429688 164.242188 207.828125 163.539062 207.121094 162.996094 C 206.066406 162.179688 204.777344 161.722656 203.386719 161.746094 C 202.246094 161.765625 201.1875 162.109375 200.273438 162.703125 C 199.425781 163.25 198.710938 164.019531 198.167969 164.953125 C 197.765625 165.648438 197.460938 166.433594 197.269531 167.289062 C 197.25 167.382812 197.226562 167.476562 197.207031 167.570312 L 196.816406 169.683594 L 196.335938 172.277344 L 195.820312 175.054688 L 195.261719 178.050781 L 194.667969 181.257812 L 194.023438 184.726562 L 193.332031 188.453125 L 192.578125 192.519531 L 191.746094 196.976562 L 190.828125 201.9375 L 189.777344 207.589844 L 188.535156 214.300781 L 186.875 223.226562 L 184.328125 236.953125 L 183.625 231.785156 L 182.8125 225.769531 L 182.066406 220.269531 L 181.375 215.164062 L 180.722656 210.355469 L 180.105469 205.789062 L 179.519531 201.460938 L 178.957031 197.316406 L 178.417969 193.332031 L 177.894531 189.496094 L 177.394531 185.789062 L 176.910156 182.207031 L 176.4375 178.734375 L 175.984375 175.367188 L 175.539062 172.101562 L 175.109375 168.929688 L 174.695312 165.847656 L 174.285156 162.859375 L 173.894531 159.953125 L 173.511719 157.128906 L 173.136719 154.386719 L 173.136719 154.351562 C 173.007812 153.4375 172.753906 152.589844 172.390625 151.835938 C 171.964844 150.953125 171.390625 150.203125 170.710938 149.605469 C 169.628906 148.660156 168.273438 148.113281 166.777344 148.113281 C 166.773438 148.113281 166.765625 148.113281 166.761719 148.113281 C 166.691406 148.113281 166.621094 148.117188 166.550781 148.121094 C 165.167969 148.175781 163.914062 148.691406 162.898438 149.554688 C 161.671875 150.601562 160.796875 152.160156 160.480469 154.023438 C 160.457031 154.152344 160.433594 154.269531 160.414062 154.398438 L 159.976562 157.796875 L 159.445312 161.875 L 158.875 166.277344 L 158.25 171.089844 L 157.550781 176.484375 L 157.207031 179.125 C 157.171875 179.402344 157.09375 179.59375 157.023438 179.707031 L 95.449219 179.707031 C 95.589844 180.410156 95.734375 181.113281 95.894531 181.820312 L 97.5625 181.820312 C 97.703125 182.523438 97.847656 183.226562 98.007812 183.9375 L 99.679688 183.9375 C 99.820312 184.640625 99.960938 185.34375 100.125 186.050781 L 101.792969 186.050781 C 101.804688 186.121094 101.824219 186.191406 101.835938 186.257812 L 157.339844 186.257812 C 157.550781 186.257812 157.765625 186.242188 157.972656 186.21875 C 160.902344 185.898438 163.257812 183.367188 163.703125 179.96875 L 163.933594 178.171875 L 164.578125 173.222656 L 165.160156 168.710938 L 165.695312 164.585938 L 166.195312 160.738281 L 166.660156 157.164062 L 166.78125 156.230469 L 166.890625 157.039062 L 167.300781 160.085938 L 167.726562 163.222656 L 168.167969 166.449219 L 168.613281 169.773438 L 169.082031 173.207031 L 169.5625 176.746094 L 170.054688 180.402344 L 170.570312 184.191406 L 171.101562 188.121094 L 171.65625 192.207031 L 172.234375 196.46875 L 172.835938 200.925781 L 173.472656 205.613281 L 174.148438 210.617188 L 174.875 215.957031 L 175.65625 221.746094 L 176.53125 228.175781 L 177.53125 235.578125 L 177.949219 238.648438 C 178.109375 239.832031 178.496094 240.902344 179.054688 241.808594 C 179.605469 242.707031 180.324219 243.445312 181.164062 243.972656 C 181.855469 244.40625 182.617188 244.699219 183.441406 244.820312 C 183.679688 244.855469 183.921875 244.878906 184.167969 244.886719 C 184.21875 244.890625 184.265625 244.890625 184.316406 244.890625 C 184.855469 244.890625 185.378906 244.8125 185.878906 244.671875 C 186.972656 244.367188 187.957031 243.75 188.746094 242.886719 C 189.65625 241.890625 190.316406 240.582031 190.597656 239.058594 L 191.703125 233.097656 L 193.648438 222.625 L 194.992188 215.367188 L 196.105469 209.394531 L 197.0625 204.226562 L 197.917969 199.621094 L 198.695312 195.433594 L 199.410156 191.582031 L 200.066406 188.042969 L 200.679688 184.738281 L 201.25 181.679688 L 201.777344 178.820312 L 202.269531 176.179688 L 202.726562 173.710938 L 203.160156 171.382812 L 203.511719 169.480469 L 203.933594 171.332031 L 204.441406 173.5625 L 204.953125 175.816406 L 205.480469 178.117188 L 206.019531 180.492188 L 206.570312 182.925781 L 207.136719 185.425781 L 207.71875 187.984375 L 208.316406 190.605469 L 208.925781 193.28125 L 209.546875 196.027344 L 210.183594 198.835938 L 210.554688 200.472656 C 210.648438 200.886719 210.773438 201.277344 210.917969 201.65625 C 211.28125 202.597656 211.804688 203.417969 212.441406 204.085938 C 213.242188 204.921875 214.230469 205.507812 215.332031 205.785156 C 215.816406 205.910156 216.324219 205.976562 216.847656 205.972656 C 218.976562 205.945312 220.832031 204.804688 221.988281 202.960938 C 222.476562 202.179688 222.84375 201.273438 223.046875 200.273438 L 223.117188 199.925781 L 223.648438 197.289062 L 224.144531 194.835938 L 224.613281 192.511719 L 225.066406 190.257812 L 225.507812 188.078125 L 225.929688 185.984375 L 226.335938 183.988281 L 226.714844 182.089844 L 227.078125 180.289062 L 227.40625 178.679688 L 228.058594 180.453125 L 228.722656 182.257812 C 228.730469 182.289062 228.746094 182.3125 228.757812 182.339844 C 229.039062 183.085938 229.425781 183.742188 229.882812 184.324219 C 231.078125 185.832031 232.785156 186.742188 234.644531 186.742188 C 234.648438 186.742188 234.65625 186.742188 234.664062 186.742188 L 240.050781 186.726562 L 242.773438 186.71875 L 244.300781 186.710938 L 245.195312 186.707031 L 245.953125 186.707031 L 248.042969 186.699219 L 252.007812 186.683594 L 256.050781 186.671875 L 260.195312 186.660156 L 264.476562 186.644531 L 268.960938 186.628906 L 273.71875 186.613281 L 278.902344 186.597656 L 279.3125 186.59375 C 278.847656 188.042969 278.332031 189.503906 277.773438 190.980469 C 277.011719 192.976562 276.167969 195 275.230469 197.050781 C 273.804688 200.160156 272.167969 203.328125 270.304688 206.558594 C 269.765625 207.492188 269.207031 208.429688 268.632812 209.371094 C 268.621094 209.390625 268.609375 209.40625 268.601562 209.421875 C 268.570312 209.476562 268.539062 209.53125 268.503906 209.582031 C 268.445312 209.679688 268.386719 209.773438 268.328125 209.871094 C 268.238281 210.015625 268.152344 210.15625 268.058594 210.300781 C 267.941406 210.496094 267.816406 210.691406 267.695312 210.882812 C 267.535156 211.136719 267.378906 211.386719 267.21875 211.636719 C 267.023438 211.941406 266.824219 212.25 266.625 212.558594 C 266.386719 212.921875 266.144531 213.292969 265.902344 213.660156 C 265.617188 214.085938 265.328125 214.515625 265.039062 214.941406 C 264.707031 215.429688 264.371094 215.921875 264.03125 216.410156 C 263.652344 216.957031 263.261719 217.507812 262.867188 218.058594 C 262.433594 218.667969 261.988281 219.277344 261.539062 219.894531 C 261.042969 220.5625 260.542969 221.234375 260.03125 221.910156 C 259.472656 222.644531 258.898438 223.378906 258.320312 224.117188 C 257.695312 224.910156 257.0625 225.707031 256.410156 226.511719 C 255.679688 227.40625 254.933594 228.308594 254.171875 229.214844 C 253.191406 230.371094 252.191406 231.539062 251.152344 232.710938 C 249.671875 234.386719 248.132812 236.078125 246.53125 237.789062 C 241.046875 243.632812 234.847656 249.648438 227.859375 255.851562 C 225.976562 257.523438 224.039062 259.203125 222.039062 260.898438 C 220.667969 262.070312 219.265625 263.242188 217.835938 264.421875 C 216.691406 265.367188 215.527344 266.316406 214.347656 267.269531 C 213.351562 268.070312 212.339844 268.878906 211.320312 269.6875 C 210.429688 270.390625 209.53125 271.097656 208.621094 271.808594 C 207.847656 272.410156 207.066406 273.015625 206.277344 273.621094 C 205.582031 274.160156 204.875 274.699219 204.164062 275.238281 C 203.464844 275.769531 202.761719 276.304688 202.050781 276.835938 C 201.402344 277.324219 200.757812 277.808594 200.101562 278.296875 C 199.542969 278.710938 198.976562 279.132812 198.40625 279.554688 C 197.890625 279.933594 197.371094 280.316406 196.851562 280.695312 C 196.609375 280.867188 196.375 281.042969 196.136719 281.21875 C 196.042969 281.289062 195.953125 281.355469 195.859375 281.421875 C 194.894531 282.125 193.921875 282.828125 192.9375 283.539062 C 192.914062 283.550781 192.894531 283.570312 192.871094 283.585938 C 192.496094 283.855469 192.117188 284.125 191.742188 284.394531 C 191.394531 284.640625 191.046875 284.886719 190.699219 285.136719 C 190.378906 285.363281 190.058594 285.589844 189.738281 285.820312 C 189.445312 286.027344 189.144531 286.234375 188.851562 286.445312 C 188.578125 286.636719 188.304688 286.832031 188.03125 287.019531 C 187.851562 287.148438 187.671875 287.277344 187.488281 287.40625 C 187.335938 287.296875 187.183594 287.191406 187.03125 287.082031 C 186.5 286.710938 185.976562 286.339844 185.453125 285.964844 C 184.925781 285.59375 184.398438 285.222656 183.882812 284.851562 C 183.359375 284.480469 182.839844 284.109375 182.324219 283.738281 C 181.804688 283.367188 181.292969 282.996094 180.777344 282.625 C 180.269531 282.253906 179.757812 281.886719 179.253906 281.515625 C 178.742188 281.148438 178.234375 280.773438 177.730469 280.40625 C 177.226562 280.035156 176.726562 279.664062 176.226562 279.296875 C 175.730469 278.929688 175.234375 278.5625 174.742188 278.195312 C 174.242188 277.824219 173.753906 277.457031 173.261719 277.085938 C 172.769531 276.71875 172.28125 276.351562 171.792969 275.980469 C 171.308594 275.617188 170.828125 275.25 170.347656 274.882812 C 169.867188 274.515625 169.386719 274.148438 168.910156 273.78125 C 168.433594 273.414062 167.957031 273.050781 167.484375 272.683594 C 167.007812 272.316406 166.542969 271.949219 166.074219 271.585938 C 165.605469 271.222656 165.140625 270.855469 164.679688 270.492188 C 164.214844 270.125 163.75 269.757812 163.292969 269.394531 C 162.832031 269.03125 162.378906 268.667969 161.921875 268.300781 C 161.46875 267.941406 161.015625 267.578125 160.570312 267.214844 C 160.117188 266.851562 159.664062 266.484375 159.214844 266.121094 C 158.769531 265.757812 158.328125 265.394531 157.890625 265.035156 C 157.449219 264.671875 157.011719 264.3125 156.578125 263.957031 C 156.136719 263.585938 155.699219 263.222656 155.265625 262.855469 C 154.832031 262.496094 154.402344 262.136719 153.976562 261.777344 C 153.550781 261.417969 153.125 261.058594 152.703125 260.699219 C 152.277344 260.335938 151.851562 259.972656 151.429688 259.609375 C 151.011719 259.253906 150.597656 258.894531 150.1875 258.539062 C 149.769531 258.179688 149.359375 257.820312 148.949219 257.460938 C 148.535156 257.097656 148.125 256.738281 147.714844 256.375 C 147.316406 256.023438 146.914062 255.667969 146.519531 255.316406 C 146.113281 254.957031 145.714844 254.59375 145.316406 254.234375 C 144.914062 253.875 144.519531 253.515625 144.121094 253.152344 C 143.734375 252.800781 143.347656 252.449219 142.960938 252.097656 C 142.574219 251.738281 142.1875 251.382812 141.800781 251.019531 C 141.414062 250.664062 141.027344 250.304688 140.648438 249.949219 C 140.273438 249.597656 139.902344 249.246094 139.527344 248.894531 C 139.152344 248.535156 138.777344 248.179688 138.40625 247.824219 C 138.035156 247.46875 137.660156 247.109375 137.289062 246.753906 C 136.929688 246.402344 136.574219 246.054688 136.21875 245.707031 C 135.851562 245.347656 135.488281 244.988281 135.128906 244.632812 C 135.824219 245.335938 136.527344 246.039062 137.242188 246.75 C 137.9375 247.449219 138.640625 248.15625 139.355469 248.863281 C 140.050781 249.566406 140.757812 250.269531 141.472656 250.976562 C 142.167969 251.679688 142.871094 252.386719 143.589844 253.09375 C 144.285156 253.796875 144.988281 254.5 145.703125 255.207031 C 146.394531 255.910156 147.101562 256.617188 147.820312 257.324219 C 148.511719 258.027344 149.214844 258.730469 149.929688 259.433594 C 150.625 260.136719 151.328125 260.84375 152.046875 261.550781 C 152.742188 262.253906 153.449219 262.960938 154.164062 263.667969 C 154.855469 264.367188 155.558594 265.074219 156.273438 265.78125 C 156.972656 266.484375 157.675781 267.191406 158.394531 267.898438 C 159.085938 268.597656 159.789062 269.300781 160.503906 270.007812 C 161.199219 270.710938 161.902344 271.417969 162.621094 272.125 C 163.316406 272.828125 164.019531 273.535156 164.734375 274.242188 C 165.429688 274.945312 166.136719 275.648438 166.851562 276.355469 C 167.546875 277.058594 168.25 277.761719 168.964844 278.472656 C 169.660156 279.171875 170.363281 279.878906 171.078125 280.582031 C 171.773438 281.289062 172.480469 281.992188 173.195312 282.699219 C 173.886719 283.402344 174.59375 284.109375 175.308594 284.816406 C 176.003906 285.519531 176.710938 286.222656 177.425781 286.929688 C 178.117188 287.632812 178.824219 288.335938 179.539062 289.046875 C 180.234375 289.746094 180.9375 290.453125 181.652344 291.15625 C 182.347656 291.859375 183.050781 292.566406 183.765625 293.273438 C 184.460938 293.976562 185.167969 294.683594 185.886719 295.390625 C 186.578125 296.089844 187.28125 296.796875 187.996094 297.503906 C 188.691406 298.207031 189.398438 298.914062 190.113281 299.617188 C 190.808594 300.320312 191.511719 301.023438 192.226562 301.730469 C 192.917969 302.433594 193.625 303.140625 194.339844 303.847656 C 195.039062 304.550781 195.742188 305.253906 196.457031 305.964844 C 197.152344 306.664062 197.855469 307.371094 198.570312 308.078125 C 199.269531 308.78125 199.972656 309.484375 200.6875 310.195312 C 201.378906 310.894531 202.085938 311.597656 202.796875 312.304688 C 203.492188 313.007812 204.203125 313.714844 204.917969 314.421875 C 205.609375 315.125 206.316406 315.828125 207.03125 316.539062 C 207.726562 317.242188 208.429688 317.945312 209.148438 318.648438 C 209.839844 319.351562 210.546875 320.058594 211.261719 320.769531 C 211.957031 321.46875 212.660156 322.171875 213.375 322.878906 C 214.070312 323.582031 214.773438 324.285156 215.488281 324.996094 C 216.183594 325.699219 216.890625 326.40625 217.605469 327.109375 C 218.300781 327.8125 219.003906 328.515625 219.71875 329.226562 C 220.414062 329.929688 221.121094 330.632812 221.835938 331.339844 C 222.53125 332.042969 223.234375 332.746094 223.949219 333.453125 C 224.644531 334.15625 225.347656 334.863281 226.0625 335.570312 C 226.761719 336.273438 227.464844 336.976562 228.179688 337.6875 C 228.871094 338.386719 229.574219 339.089844 230.289062 339.796875 C 230.988281 340.5 231.695312 341.207031 232.410156 341.917969 C 233.105469 342.617188 233.808594 343.324219 234.523438 344.03125 C 235.21875 344.730469 235.921875 345.4375 236.640625 346.140625 C 237.332031 346.847656 238.039062 347.550781 238.753906 348.261719 C 239.449219 348.960938 240.152344 349.664062 240.863281 350.371094 C 241.5625 351.074219 242.265625 351.78125 242.984375 352.492188 C 243.679688 353.191406 244.382812 353.898438 245.097656 354.601562 C 245.792969 355.304688 246.496094 356.007812 247.210938 356.71875 C 247.90625 357.421875 248.613281 358.128906 249.328125 358.832031 C 250.023438 359.535156 250.726562 360.238281 251.441406 360.945312 C 252.121094 361.636719 252.820312 362.332031 253.523438 363.027344 L 253.527344 363.027344 C 253.539062 363.027344 253.546875 363.023438 253.558594 363.015625 C 253.582031 363.007812 253.609375 363 253.632812 362.992188 C 253.667969 362.976562 253.703125 362.960938 253.738281 362.949219 C 253.789062 362.929688 253.835938 362.910156 253.882812 362.894531 C 253.945312 362.871094 254.007812 362.847656 254.070312 362.824219 C 254.148438 362.792969 254.21875 362.765625 254.292969 362.738281 C 254.382812 362.703125 254.472656 362.671875 254.558594 362.636719 C 254.664062 362.597656 254.769531 362.558594 254.871094 362.519531 C 254.988281 362.472656 255.105469 362.429688 255.226562 362.382812 C 255.355469 362.332031 255.492188 362.285156 255.625 362.230469 C 255.769531 362.175781 255.917969 362.121094 256.070312 362.066406 C 256.230469 361.996094 256.394531 361.933594 256.558594 361.867188 C 256.738281 361.796875 256.914062 361.722656 257.09375 361.648438 C 257.289062 361.570312 257.484375 361.488281 257.679688 361.410156 C 257.894531 361.324219 258.109375 361.234375 258.324219 361.148438 C 258.554688 361.050781 258.789062 360.957031 259.023438 360.859375 C 259.269531 360.757812 259.523438 360.660156 259.773438 360.554688 C 260.046875 360.441406 260.320312 360.332031 260.589844 360.214844 C 260.882812 360.09375 261.167969 359.960938 261.460938 359.839844 C 261.769531 359.703125 262.082031 359.566406 262.394531 359.429688 C 262.726562 359.285156 263.0625 359.136719 263.394531 358.992188 C 263.753906 358.832031 264.113281 358.679688 264.46875 358.519531 C 264.851562 358.347656 265.230469 358.167969 265.609375 357.992188 C 267.402344 357.171875 269.179688 356.316406 270.941406 355.4375 C 270.964844 355.429688 270.988281 355.417969 271.011719 355.40625 C 271.539062 355.140625 272.070312 354.886719 272.59375 354.617188 C 273.15625 354.332031 273.714844 354.03125 274.277344 353.738281 C 274.878906 353.425781 275.480469 353.109375 276.078125 352.789062 C 276.78125 352.410156 277.480469 352.023438 278.183594 351.636719 C 278.886719 351.246094 279.597656 350.855469 280.296875 350.453125 C 281.007812 350.050781 281.710938 349.636719 282.414062 349.222656 C 283.199219 348.757812 283.988281 348.300781 284.765625 347.828125 C 285.648438 347.292969 286.515625 346.742188 287.386719 346.195312 C 288.355469 345.582031 289.316406 344.960938 290.273438 344.335938 C 291.34375 343.632812 292.40625 342.917969 293.460938 342.195312 C 294.695312 341.347656 295.925781 340.480469 297.140625 339.601562 C 298.660156 338.507812 300.160156 337.386719 301.644531 336.25 C 303.835938 334.5625 305.988281 332.832031 308.101562 331.058594 C 313.351562 326.640625 318.359375 321.953125 323.097656 316.996094 C 324.847656 315.160156 326.558594 313.285156 328.234375 311.378906 C 329.308594 310.164062 330.367188 308.933594 331.40625 307.6875 C 332.195312 306.746094 332.96875 305.792969 333.734375 304.839844 C 334.382812 304.035156 335.023438 303.226562 335.65625 302.414062 C 336.238281 301.667969 336.8125 300.921875 337.378906 300.167969 C 337.890625 299.484375 338.398438 298.792969 338.902344 298.105469 C 339.363281 297.476562 339.824219 296.851562 340.277344 296.21875 C 340.679688 295.65625 341.066406 295.085938 341.464844 294.519531 C 341.816406 294.015625 342.167969 293.511719 342.511719 293.003906 C 342.8125 292.5625 343.113281 292.117188 343.410156 291.671875 C 343.664062 291.296875 343.914062 290.910156 344.164062 290.527344 C 344.375 290.207031 344.589844 289.890625 344.800781 289.566406 C 344.96875 289.304688 345.144531 289.046875 345.316406 288.777344 C 345.449219 288.574219 345.578125 288.367188 345.710938 288.160156 C 345.808594 288.003906 345.902344 287.847656 346 287.695312 C 346.070312 287.589844 346.132812 287.480469 346.199219 287.375 C 346.238281 287.3125 346.277344 287.25 346.316406 287.1875 C 346.332031 287.164062 346.347656 287.136719 346.363281 287.113281 C 348.675781 283.433594 350.867188 279.664062 352.925781 275.816406 C 354.148438 273.53125 355.332031 271.226562 356.460938 268.890625 C 357.261719 267.226562 358.035156 265.539062 358.792969 263.847656 C 359.398438 262.488281 359.992188 261.121094 360.566406 259.75 C 361.054688 258.578125 361.539062 257.410156 362 256.230469 C 362.40625 255.207031 362.792969 254.171875 363.175781 253.140625 C 363.523438 252.210938 363.863281 251.273438 364.199219 250.335938 C 364.503906 249.476562 364.8125 248.621094 365.105469 247.757812 C 365.375 246.960938 365.628906 246.15625 365.886719 245.359375 C 366.132812 244.601562 366.382812 243.851562 366.617188 243.089844 C 366.839844 242.382812 367.046875 241.664062 367.257812 240.949219 C 367.457031 240.269531 367.667969 239.589844 367.867188 238.902344 C 368.050781 238.25 368.21875 237.589844 368.398438 236.933594 C 368.570312 236.300781 368.746094 235.671875 368.914062 235.035156 C 369.066406 234.449219 369.214844 233.863281 369.363281 233.273438 C 369.496094 232.738281 369.625 232.199219 369.753906 231.664062 C 369.871094 231.179688 369.992188 230.703125 370.105469 230.222656 C 370.207031 229.792969 370.300781 229.363281 370.398438 228.929688 C 370.480469 228.550781 370.5625 228.164062 370.648438 227.78125 C 370.71875 227.453125 370.792969 227.121094 370.863281 226.789062 C 370.925781 226.511719 370.984375 226.234375 371.042969 225.953125 C 371.09375 225.722656 371.148438 225.496094 371.195312 225.261719 C 371.230469 225.085938 371.261719 224.910156 371.296875 224.734375 C 371.320312 224.621094 371.339844 224.503906 371.363281 224.390625 C 371.371094 224.332031 371.382812 224.277344 371.394531 224.21875 C 371.300781 224.128906 371.207031 224.042969 371.113281 223.953125 C 370.421875 223.214844 369.714844 222.519531 368.996094 221.839844 " fill-opacity="1" fill-rule="nonzero"/></svg>